<?xml version="1.0" encoding="utf-8"?>
<!-- Generator: Adobe Illustrator 24.1.2, SVG Export Plug-In . SVG Version: 6.00 Build 0)  -->
<svg version="1.1" id="Capa_1" xmlns="http://www.w3.org/2000/svg" xmlns:xlink="http://www.w3.org/1999/xlink" x="0px" y="0px"
	 viewBox="0 0 512 512" style="enable-background:new 0 0 512 512;" xml:space="preserve">
<style type="text/css">
	.st0{fill:#34A853;}
</style>
<g>
	<g>
		<path class="st0" d="M256,40.1C136.8,40.1,40.1,136.7,40.1,256c0,88.6,53.4,164.7,129.8,197.9l2.8-54.5c0-43.4-32-29.5-32-59.8
			c0-17,0.5-52.4,0.5-79c0-70.9,30.1-139.4,37.5-154.7c7.4-15.3,24.9-32,25.1-15.9c0,23.3,1,294,1,294h0l3.3,82.4
			c15.5,3.5,31.5,5.5,48,5.5c9,0,17.9-0.7,26.7-1.8l7.1-138.4c-17.6-3.9-32.7-15.1-42.1-29.2c-11.7-17.5,9-172.2,9-172.2h13.5v145.2
			h13.3V130.3h14.6v145.2h13.3V130.3h15.1v145.2h13.3V130.3h10.3c0,0,20.6,154.7,9,172.2c-9.3,13.9-24.2,25.1-41.6,29.1
			c-0.3,0.1-0.6,0.2-0.6,0.2l6.8,129.1c86.1-28.4,148.3-109.3,148.3-204.9C471.9,136.8,375.2,40.1,256,40.1z"/>
		<path class="st0" d="M256,0C114.9,0,0,114.8,0,256c0,141.1,114.9,256,256,256c141.1,0,256-114.9,256-256C512,114.8,397.2,0,256,0z
			 M256,492.9C125.4,492.9,19.1,386.6,19.1,256C19.1,125.4,125.4,19.1,256,19.1c130.6,0,236.9,106.3,236.9,236.9
			C492.9,386.6,386.6,492.9,256,492.9z"/>
	</g>
</g>
</svg>
