<?xml version="1.0" encoding="utf-8"?>
<!-- Generator: Adobe Illustrator 24.1.2, SVG Export Plug-In . SVG Version: 6.00 Build 0)  -->
<svg version="1.1" id="Layer_1" xmlns="http://www.w3.org/2000/svg" xmlns:xlink="http://www.w3.org/1999/xlink" x="0px" y="0px"
	 viewBox="0 0 47.4 59.4" style="enable-background:new 0 0 47.4 59.4;" xml:space="preserve">
<style type="text/css">
	.st0{fill:none;stroke:#34A853;stroke-width:2.8346;}
</style>
<g id="Layer_1_1_">
	<path class="st0" d="M45.8,49.1c-0.5-0.9-1.7-1.6-2.4-2.2c-1.5-1.3-3.1-2.6-4.6-4c-0.8-0.7-1.4-1.7-2.3-2.2
		c-1.2-0.8-2.2,0.2-3.2,0.9c-2.4,1.7-4.9,5.2-8,3c-2-1.4-3.8-3.4-5.5-5.2c-2.5-2.8-4.6-5.9-6.1-9.3c-1.1-2.4-2.4-5.2-2.8-7.8
		c-0.5-3.5,4.2-4.5,6.6-6c1.1-0.7,1.8-1.1,1.5-2.4c-0.2-0.8-0.6-1.5-0.9-2.2c-0.9-2.3-1.5-4.7-2.2-7.1c-0.2-0.8-0.4-2.4-1.2-2.9
		S12,1.4,11.2,1.5C5.4,1.7,1.5,8.4,1.4,13.7c-0.1,5.9,1.4,12.4,3.9,17.6c3.2,7,7.9,14.1,13.9,19.1c1.9,1.6,4,2.8,6.1,4.1
		c2.5,1.6,5.1,3.1,8.2,3.4c3.1,0.3,7.6-0.5,10-2.8C44.6,54,46.6,50.7,45.8,49.1z"/>
</g>
<g id="Layer_3">
</g>
</svg>
