<svg id="7e1e6ced-5876-4a5f-a55c-ac839f5ba2ce" data-name="Layer 1" xmlns="http://www.w3.org/2000/svg" viewBox="0 0 62.45 56.69"><defs><style>.be4276c6-d88c-4d62-bf7e-cf03baa774bf{fill:#fda11c;}</style></defs><title>icon</title><path class="be4276c6-d88c-4d62-bf7e-cf03baa774bf" d="M62.07,12.59a2.28,2.28,0,0,0-1.92-1h-32a2.31,2.31,0,0,0,0,4.61h28.5L48.07,35.81H22.34L12.91,1.7A2.33,2.33,0,0,0,10.67,0H2.31A2.33,2.33,0,0,0,0,2.32a2.31,2.31,0,0,0,2.31,2.3H8.93l9.43,34.13a2.31,2.31,0,0,0,2.23,1.69h29a2.32,2.32,0,0,0,2.13-1.39L62.27,14.79A2.35,2.35,0,0,0,62.07,12.59Z"/><circle class="be4276c6-d88c-4d62-bf7e-cf03baa774bf" cx="18.41" cy="51.46" r="5.23"/><path class="be4276c6-d88c-4d62-bf7e-cf03baa774bf" d="M50.8,46.21a5.25,5.25,0,0,0,.34,10.48h.39a5.25,5.25,0,0,0-.73-10.48Z"/></svg>