<?xml version="1.0" encoding="utf-8"?>
<!-- Generator: Adobe Illustrator 24.1.2, SVG Export Plug-In . SVG Version: 6.00 Build 0)  -->
<svg version="1.1" id="_x34_0d9f460-3cf1-4220-a518-994894d5c9b0"
	 xmlns="http://www.w3.org/2000/svg" xmlns:xlink="http://www.w3.org/1999/xlink" x="0px" y="0px" viewBox="0 0 54.3 60.9"
	 style="enable-background:new 0 0 54.3 60.9;" xml:space="preserve">
<path d="M53.9,57.5L40.7,41.3c4.1-4,6.8-9.4,7.3-15.5c0-0.6,0.1-1.2,0.1-1.7c0-6.2-2.4-12-6.4-16.3c-4-4.3-9.6-7.2-15.9-7.6l0,0
	C25.2,0,24.6,0,24,0C17.8,0,12,2.4,7.7,6.4c-4.3,4-7.2,9.6-7.6,15.9l0,0l0,0l0,0C0,22.9,0,23.5,0,24.1c0,6.2,2.4,12,6.4,16.3
	c4,4.3,9.6,7.2,15.9,7.6h0c0.6,0,1.2,0.1,1.7,0.1c4.9,0,9.5-1.5,13.4-4.1l13.1,16.2c0.7,0.9,2.1,1.1,3,0.3S54.6,58.4,53.9,57.5z
	 M22.6,43.8L22.6,43.8c-5.2-0.4-9.8-2.7-13.1-6.3c-3.3-3.6-5.3-8.3-5.3-13.4c0-0.5,0-0.9,0.1-1.4v0l0,0c0.4-5.2,2.7-9.8,6.3-13.1
	c3.6-3.3,8.3-5.3,13.4-5.3c0.5,0,1,0,1.4,0.1l0,0c5.2,0.4,9.8,2.7,13.1,6.3c3.3,3.6,5.3,8.3,5.3,13.4c0,0.5,0,0.9-0.1,1.4
	c-0.4,5.2-2.7,9.8-6.3,13.1c-3.6,3.3-8.3,5.3-13.4,5.3C23.6,43.8,23.1,43.8,22.6,43.8z"/>
</svg>
