<svg id="85a3a97a-47f5-41a6-99d2-334cbee2e286" data-name="Layer 1" xmlns="http://www.w3.org/2000/svg" viewBox="0 0 56.69 56.69"><defs><style>.\32 290c825-9929-4d11-ad4a-0228e8839e47{fill:#34a853;}</style></defs><title>icon</title><path class="2290c825-9929-4d11-ad4a-0228e8839e47" d="M28.35,4.44a23.9,23.9,0,0,0-9.54,45.82l.31-6c0-4.8-3.54-3.26-3.54-6.62,0-1.88.05-5.8.05-8.74,0-7.85,3.34-15.44,4.16-17.13S22.54,8.18,22.57,10c0,2.58.11,32.55.11,32.55h0L23,51.64a24,24,0,0,0,5.32.61,22.26,22.26,0,0,0,2.95-.2l.79-15.32a7.68,7.68,0,0,1-4.66-3.23c-1.3-1.94,1-19.07,1-19.07h1.49V30.51H31.4V14.43H33V30.51h1.47V14.43h1.67V30.51h1.48V14.43h1.14s2.28,17.13,1,19.07a7.79,7.79,0,0,1-4.6,3.22l-.07,0L35.85,51a23.89,23.89,0,0,0-7.5-46.59Z"/><path class="2290c825-9929-4d11-ad4a-0228e8839e47" d="M28.35,0A28.35,28.35,0,1,0,56.69,28.35,28.38,28.38,0,0,0,28.35,0Zm0,54.58A26.24,26.24,0,1,1,54.58,28.35,26.27,26.27,0,0,1,28.35,54.58Z"/></svg>