<?xml version="1.0" encoding="utf-8"?>
<!-- Generator: Adobe Illustrator 22.0.1, SVG Export Plug-In . SVG Version: 6.00 Build 0)  -->
<svg version="1.1" xmlns="http://www.w3.org/2000/svg" xmlns:xlink="http://www.w3.org/1999/xlink" x="0px" y="0px"
	 viewBox="0 0 46.6 58.7" style="enable-background:new 0 0 46.6 58.7;" xml:space="preserve">
<style type="text/css">
	.st0{fill:none;stroke:#34A853;stroke-width:2;}
	.st1{fill:none;stroke:#34A853;stroke-width:2.8346;}
	.st2{display:none;}
	.st3{display:inline;opacity:0.87;fill:none;stroke:#34A853;stroke-width:2;enable-background:new    ;}
	.st4{fill:#FDA11C;}
	.st5{fill:#34A853;}
	.st6{fill:#FFFFFF;}
</style>
<g id="Layer_1">
	<path class="st0" d="M45.4,48.8c-0.5-0.9-1.7-1.6-2.4-2.2c-1.5-1.3-3.1-2.6-4.6-4c-0.8-0.7-1.4-1.7-2.3-2.2
		c-1.2-0.8-2.2,0.2-3.2,0.9c-2.4,1.7-4.9,5.2-8,3c-2-1.4-3.8-3.4-5.5-5.2c-2.5-2.8-4.6-5.9-6.1-9.3c-1.1-2.4-2.4-5.2-2.8-7.8
		c-0.5-3.5,4.2-4.5,6.6-6c1.1-0.7,1.8-1.1,1.5-2.4c-0.2-0.8-0.6-1.5-0.9-2.2c-0.9-2.3-1.5-4.7-2.2-7.1c-0.2-0.8-0.4-2.4-1.2-2.9
		c-0.8-0.5-2.7-0.3-3.5-0.2C5,1.4,1.1,8.1,1,13.4C0.9,19.3,2.4,25.8,4.9,31c3.2,7,7.9,14.1,13.9,19.1c1.9,1.6,4,2.8,6.1,4.1
		c2.5,1.6,5.1,3.1,8.2,3.4c3.1,0.3,7.6-0.5,10-2.8C44.2,53.7,46.2,50.4,45.4,48.8z"/>
</g>
<g id="Layer_3">
</g>
</svg>
