<?xml version="1.0" encoding="utf-8"?>
<!-- Generator: Adobe Illustrator 24.1.2, SVG Export Plug-In . SVG Version: 6.00 Build 0)  -->
<svg version="1.1" id="_x37_e1e6ced-5876-4a5f-a55c-ac839f5ba2ce"
	 xmlns="http://www.w3.org/2000/svg" xmlns:xlink="http://www.w3.org/1999/xlink" x="0px" y="0px" viewBox="0 0 62.5 56.7"
	 style="enable-background:new 0 0 62.5 56.7;" xml:space="preserve">
<style type="text/css">
	.st0{fill:#FDA11C;}
</style>
<g>
	<path class="st0" d="M62.1,12.6c-0.4-0.6-1.2-1-1.9-1h-32c-1.3,0.1-2.2,1.2-2.2,2.5c0.1,1.2,1,2.1,2.2,2.2h28.5l-8.6,19.6H22.3
		L12.9,1.7c-0.3-1-1.2-1.7-2.2-1.7H2.3C1,0,0,1,0,2.3c0,1.3,1,2.3,2.3,2.3h6.6l9.4,34.1c0.3,1,1.2,1.7,2.2,1.7h29
		c0.9,0,1.8-0.5,2.1-1.4l10.5-24.3C62.6,14.1,62.5,13.2,62.1,12.6z"/>
	<circle class="st0" cx="18.4" cy="51.5" r="5.2"/>
	<path class="st0" d="M50.8,46.2c-2.9,0.2-5,2.8-4.8,5.7c0.2,2.7,2.4,4.7,5.1,4.8h0.4c2.9-0.2,5.1-2.7,4.9-5.6S53.7,46,50.8,46.2
		L50.8,46.2z"/>
</g>
</svg>
