<?xml version="1.0" encoding="utf-8"?>
<!-- Generator: Adobe Illustrator 24.1.2, SVG Export Plug-In . SVG Version: 6.00 Build 0)  -->
<svg version="1.1" id="Capa_1" xmlns="http://www.w3.org/2000/svg" xmlns:xlink="http://www.w3.org/1999/xlink" x="0px" y="0px"
	 viewBox="0 0 116 146" style="enable-background:new 0 0 116 146;" xml:space="preserve">
<style type="text/css">
	.st0{fill:#DFDFDF;}
</style>
<g>
	<g>
		<path class="st0" d="M27.5,48.9c-0.8,0-1.5,0.1-2.3,0.1l5.7,97h9.5l-3.8-96.4C33.6,49.2,30.6,48.9,27.5,48.9z"/>
		<polygon class="st0" points="78.5,146 88,146 93.8,48.6 82.3,48.6 		"/>
		<path class="st0" d="M60.1,48.9c-0.2,0.1-0.5,0.2-0.7,0.3l-0.2,0.1l-3.5,1.3c-1.4,0.4-3.1,0.5-4.8,0.5l1.4,95h14.3L68,49.6
			c-1,0.1-2,0.2-2.9,0.2C63.6,49.8,61.7,49.7,60.1,48.9z"/>
		<path class="st0" d="M103.6,36.8c-15.1-2.6-26.7,7.4-38.2,7.3c3.5-2,7.6-6.5,10.8-12.3c5.1-9.3,6-18.7,2-20.8
			c-3.5-1.9-9.5,2.3-14.4,9.7c-0.3-0.9-0.6-1.9-1-2.8C57.5,5.2,47.2-2.4,39.7,0.7c-7.5,3.1-9.2,15.9-3.9,28.5
			c2.7,6.4,6.7,11.5,10.9,14.6C32,37.7,18.4,21.4,0,44.5l2.5,13.6c18.2-22.7,42-5.2,54.8-11.1c1.3-0.6,2.2-1,2.7-1.3
			c0.2,0,0.4,0,0.7,0c3.5,4.1,24.2-3.8,38.1-0.2c6.9,1.8,4.9,14.7,3.7,21.5l10.7-7.3C120.6,46.6,112,38.2,103.6,36.8z M57.6,43.2
			c-0.6,0.2-1.1,0.4-1.7,0.4c0,0-0.1,0-0.1,0c-4.5,0.3-9.9-4.3-12.8-11.3c-3.3-8-2.2-16.1,2.5-18.1c4.7-2,11.3,2.9,14.6,10.9
			c0.2,0.5,0.3,0.9,0.5,1.4c-3.1,6.7-4,13-2.4,16.3C57.9,42.9,57.8,43.1,57.6,43.2z M60,41.2c-1-2.1-0.4-6.3,1.7-10.6
			C62.4,34.9,61.8,38.8,60,41.2z M63.1,42.6c2.7-4,3.4-10.5,1.9-17.5c2.8-3.4,5.8-5.2,7.7-4.2c2.5,1.4,1.9,7.3-1.3,13.2
			C68.9,38.8,65.6,42,63.1,42.6z"/>
	</g>
</g>
</svg>
