<?xml version="1.0" encoding="utf-8"?>
<!-- Generator: Adobe Illustrator 24.1.2, SVG Export Plug-In . SVG Version: 6.00 Build 0)  -->
<svg version="1.1" id="Capa_1" xmlns="http://www.w3.org/2000/svg" xmlns:xlink="http://www.w3.org/1999/xlink" x="0px" y="0px"
	 viewBox="0 0 512 512" style="enable-background:new 0 0 512 512;" xml:space="preserve">
<style type="text/css">
	.st0{fill:#FF9900;}
</style>
<g>
	<g>
		<path class="st0" d="M107.6,17c0.2,0,0.3,0,0.5,0c1.7,2.2,5.3,7.4,11.2,19.3l0.2,0.5l0.3,0.5c2.6,4.4,6,10.7,10.7,19.2
			c4.9,9,9.1,16.6,12.8,23.3c4,7.1,7.9,13.8,11.5,19.9l0.4,0.7l0.5,0.7c0.2,0.3,1.3,1.8,6,8.6c3.7,5.4,5.6,8.8,6.5,10.6
			c0.3,0.6,0.6,1.4,0.8,2.2c-0.5,1-1.9,3.3-5.6,7.2c-6.2,6.6-13.1,12.6-20.4,18.1c-8.7,6.5-16.9,13.5-24.3,20.8
			c-6.6,6.5-15.5,16.6-15.5,28.9c0,4.2,0.9,8.9,2.9,14.1c1.4,3.9,2.7,6.9,3.8,9.1c1.1,2.2,2.9,5.3,5.8,10.1c2.5,4,3.3,5.4,3.6,5.9
			l0.2,0.3c19.1,34.4,41.3,64.4,66.1,89.2c24.8,24.8,54.8,47,89.2,66.1l0.3,0.2c0.5,0.3,1.8,1.1,5.9,3.6c4.5,2.8,7.8,4.7,10,5.8
			l0.1,0l0.1,0c2.3,1.1,5.3,2.4,9.1,3.8c5.2,1.9,9.8,2.9,14.1,2.9c12.3,0,22.3-8.8,28.9-15.5c7.3-7.5,14.3-15.6,20.8-24.3
			c5.4-7.3,11.5-14.1,18.1-20.4c3.9-3.7,6.3-5.1,7.2-5.6c0.8,0.1,1.6,0.5,2.2,0.8c1.9,0.9,5.2,2.7,10.6,6.5c6.2,4.3,8.1,5.6,8.6,6
			l0.7,0.5l0.8,0.5c6.3,3.8,13,7.6,19.9,11.5c6.9,3.9,14.7,8.2,23.3,12.8c8.7,4.7,15,8.2,19.2,10.7l0.5,0.3l0.5,0.2
			c11.9,5.9,17.2,9.5,19.3,11.2c0,0.1,0,0.3,0,0.5c0,3.6-0.6,10.3-3.2,21.8c-2.2,9.5-4.4,16.8-6.6,21.8l-0.1,0.1l-0.1,0.1
			c-1.6,3.8-8.4,14.4-36.9,30.2C428,489.5,408,495,388.7,495c-5.7,0-11.3-0.4-16.8-1.1c-5.4-0.7-11.7-2.1-18.6-4.1
			c-7.4-2.1-12.8-3.7-16.2-4.9c-3.7-1.3-10.4-3.8-19.9-7.3c-13.8-5.2-17.1-6.3-18.3-6.7c-22.4-8-42.7-17.6-60.2-28.5l0,0l0,0
			c-29.8-18.4-61.1-43.9-93.1-75.9c-32-32-57.5-63.3-75.9-93.1l0,0l0,0c-10.9-17.5-20.5-37.8-28.5-60.2c-0.6-1.7-1.9-5.4-6.7-18.2
			c-3.6-9.6-6.1-16.3-7.3-19.9c-1.2-3.4-2.9-8.8-4.9-16.2c-2-7-3.3-13.2-4.1-18.6c-0.7-5.4-1.1-11-1.1-16.8
			c0-19.3,5.5-39.3,16.4-59.5C49.3,35.4,59.9,28.6,63.7,27l0.1-0.1l0.1-0.1c5-2.2,12.4-4.4,21.9-6.6C97.3,17.6,104,17,107.6,17
			 M107.6,0C101.1,0,92.6,1.2,82,3.6c-10.5,2.4-18.8,5-24.9,7.6c-12.1,5.1-25,19.9-38.5,44.4C6.2,78.4,0,101,0,123.3
			c0,6.5,0.4,12.9,1.3,19.1c0.8,6.2,2.4,13.2,4.5,20.9c2.2,7.8,3.9,13.5,5.3,17.3c1.3,3.8,3.8,10.5,7.5,20.2
			c3.6,9.7,5.8,15.6,6.5,17.8c8.5,23.8,18.5,45,30.2,63.6c19.1,31,45.3,63.1,78.4,96.2c33.1,33.1,65.2,59.2,96.2,78.4
			c18.7,11.6,39.9,21.7,63.6,30.2c2.2,0.7,8.1,2.9,17.8,6.5c9.7,3.6,16.4,6.1,20.2,7.5c3.8,1.3,9.5,3.1,17.3,5.3
			c7.8,2.2,14.7,3.7,20.9,4.6c6.2,0.8,12.5,1.3,19.1,1.3c22.3,0,44.8-6.2,67.6-18.5c24.5-13.6,39.3-26.4,44.4-38.6
			c2.7-6.1,5.2-14.4,7.6-24.9c2.4-10.5,3.6-19.1,3.6-25.6c0-3.4-0.4-5.9-1.1-7.7c-1.4-4.4-10.7-10.8-27.6-19.3
			c-4.6-2.7-11.1-6.3-19.6-10.9c-8.5-4.6-16.2-8.9-23.1-12.7c-6.9-3.9-13.4-7.6-19.5-11.3c-1-0.7-4-2.8-9.1-6.4
			c-5.1-3.5-9.4-6.1-12.9-7.8c-3.5-1.7-7-2.5-10.4-2.5c-4.8,0-10.9,3.5-18.2,10.4c-7.3,6.9-13.9,14.4-20,22.6
			c-6.1,8.1-12.5,15.6-19.3,22.5c-6.8,6.9-12.4,10.4-16.7,10.4c-2.2,0-4.9-0.6-8.2-1.8c-3.3-1.2-5.8-2.2-7.5-3.1
			c-1.7-0.9-4.6-2.5-8.7-5.1c-4.1-2.5-6.4-3.9-6.9-4.2c-33.2-18.4-61.7-39.5-85.5-63.3c-23.8-23.8-44.8-52.2-63.3-85.5
			c-0.2-0.5-1.6-2.8-4.2-6.9c-2.5-4.1-4.2-7-5.1-8.7c-0.8-1.7-1.9-4.2-3.1-7.5c-1.2-3.3-1.8-6-1.8-8.2c0-4.4,3.5-9.9,10.4-16.7
			c6.9-6.8,14.4-13.2,22.5-19.3c8.1-6.1,15.6-12.7,22.5-20c6.9-7.3,10.4-13.3,10.4-18.2c0-3.4-0.8-6.8-2.5-10.4
			c-1.7-3.5-4.3-7.8-7.8-12.9c-3.5-5.1-5.6-8.1-6.4-9.1c-3.6-6.1-7.4-12.5-11.3-19.4c-3.9-6.9-8.1-14.6-12.7-23.1
			c-4.6-8.5-8.2-15-10.9-19.6c-8.5-17-14.9-26.2-19.3-27.6C113.6,0.4,111,0,107.6,0L107.6,0z"/>
	</g>
</g>
</svg>
